ffmpeg started on 2016-12-03 at 10:28:01
Report written to "Output/x264/results/ffmpeg/old_town_cross_2160p50placebo8000k.log"
Command line:
Tools/ffmpeg/ffmpeg -benchmark -y -i Input/y4m/old_town_cross_2160p50.y4m -c:v libx264 -preset placebo -b:v 8000k -an Output/x264/encoded/old_town_cross_2160p50placebo8000k.mkv
ffmpeg version N-82227-gdb23fde Copyright (c) 2000-2016 the FFmpeg developers
  built with gcc 5.4.0 (Ubuntu 5.4.0-6ubuntu1~16.04.2) 20160609
  configuration: --prefix=/home/jaroslav/ffmpeg_build --pkg-config-flags=--static --extra-cflags=-I/home/jaroslav/ffmpeg_build/include --extra-ldflags=-L/home/jaroslav/ffmpeg_build/lib --bindir=/home/jaroslav/bin --enable-gpl --enable-libass --enable-libfdk-aac --enable-libfreetype --enable-libmp3lame --enable-libopus --enable-libtheora --enable-libvorbis --enable-libvpx --enable-libx264 --enable-libx265 --enable-nvenc --enable-libmfx --enable-libxvid --enable-libgsm --enable-libopencore-amrnb --enable-version3 --enable-nonfree
  libavutil      55. 35.100 / 55. 35.100
  libavcodec     57. 66.101 / 57. 66.101
  libavformat    57. 57.100 / 57. 57.100
  libavdevice    57.  2.100 / 57.  2.100
  libavfilter     6. 66.100 /  6. 66.100
  libswscale      4.  3.100 /  4.  3.100
  libswresample   2.  4.100 /  2.  4.100
  libpostproc    54.  2.100 / 54.  2.100
Input #0, yuv4mpegpipe, from 'Input/y4m/old_town_cross_2160p50.y4m':
  Duration: 00:00:10.00, start: 0.000000, bitrate: 4976642 kb/s
    Stream #0:0: Video: rawvideo (I420 / 0x30323449), yuv420p(progressive), 3840x2160, SAR 1:1 DAR 16:9, 50 fps, 50 tbr, 50 tbn, 50 tbc
[libx264 @ 0x2ce6120] using SAR=1/1
[libx264 @ 0x2ce6120] DPB size (16 frames, 518400 mbs) > level limit (5 frames, 184320 mbs)
[libx264 @ 0x2ce6120] using cpu capabilities: MMX2 SSE2Fast SSSE3 SSE4.2 AVX FMA3 AVX2 LZCNT BMI2
[libx264 @ 0x2ce6120] profile High, level 5.2
[libx264 @ 0x2ce6120] 264 - core 148 - H.264/MPEG-4 AVC codec - Copyleft 2003-2016 - http://www.videolan.org/x264.html - options: cabac=1 ref=16 deblock=1:0:0 analyse=0x3:0x133 me=tesa subme=11 psy=1 psy_rd=1.00:0.00 mixed_ref=1 me_range=24 chroma_me=1 trellis=2 8x8dct=1 cqm=0 deadzone=21,11 fast_pskip=0 chroma_qp_offset=-2 threads=6 lookahead_threads=1 sliced_threads=0 nr=0 decimate=1 interlaced=0 bluray_compat=0 constrained_intra=0 bframes=16 b_pyramid=2 b_adapt=2 b_bias=0 direct=3 weightb=1 open_gop=0 weightp=2 keyint=250 keyint_min=25 scenecut=40 intra_refresh=0 rc_lookahead=60 rc=abr mbtree=1 bitrate=8000 ratetol=1.0 qcomp=0.60 qpmin=0 qpmax=69 qpstep=4 ip_ratio=1.40 aq=1:1.00
Output #0, matroska, to 'Output/x264/encoded/old_town_cross_2160p50placebo8000k.mkv':
  Metadata:
    encoder         : Lavf57.57.100
    Stream #0:0: Video: h264 (libx264) (H264 / 0x34363248), yuv420p, 3840x2160 [SAR 1:1 DAR 16:9], q=-1--1, 8000 kb/s, 50 fps, 1k tbn, 50 tbc
    Metadata:
      encoder         : Lavc57.66.101 libx264
    Side data:
      cpb: bitrate max/min/avg: 0/0/8000000 buffer size: 0 vbv_delay: -1
Stream mapping:
  Stream #0:0 -> #0:0 (rawvideo (native) -> h264 (libx264))
Press [q] to stop, [?] for help
frame=   58 fps=0.0 q=0.0 size=       0kB time=00:00:00.00 bitrate=N/A speed=   0x    frame=   84 fps=3.3 q=0.0 size=       0kB time=00:00:00.00 bitrate=N/A speed=   0x    frame=   89 fps=3.2 q=36.0 size=       1kB time=-00:00:00.01 bitrate=N/A speed=N/A    frame=   90 fps=2.9 q=36.0 size=       1kB time=00:00:00.00 bitrate=5888.0kbits/s speed=3.17e-05x    frame=   91 fps=2.5 q=36.0 size=       1kB time=00:00:00.02 bitrate= 280.4kbits/s speed=0.000571x    frame=   92 fps=2.4 q=36.0 size=       1kB time=00:00:00.04 bitrate= 143.6kbits/s speed=0.00107x    frame=   96 fps=2.3 q=36.0 size=       1kB time=00:00:00.12 bitrate=  48.7kbits/s speed=0.00284x    frame=   97 fps=2.1 q=36.0 size=       1kB time=00:00:00.14 bitrate=  41.8kbits/s speed=0.00299x    frame=   98 fps=2.0 q=44.0 size=       1kB time=00:00:00.16 bitrate=  36.6kbits/s speed=0.00333x    frame=  101 fps=2.1 q=37.0 size=       1kB time=00:00:00.22 bitrate=  26.6kbits/s speed=0.00452x    frame=  102 fps=2.0 q=38.0 size=       1kB time=00:00:00.24 bitrate=  24.4kbits/s speed=0.00466x    frame=  103 fps=1.9 q=39.0 size=       1kB time=00:00:00.26 bitrate=  22.6kbits/s speed=0.00481x    frame=  106 fps=1.8 q=42.0 size=       1kB time=00:00:00.32 bitrate=  18.3kbits/s speed=0.00546x    frame=  108 fps=1.8 q=41.0 size=       1kB time=00:00:00.36 bitrate=  16.3kbits/s speed=0.00603x    frame=  109 fps=1.7 q=42.0 size=       1kB time=00:00:00.38 bitrate=  15.5kbits/s speed=0.00603x    frame=  112 fps=1.7 q=43.0 size=       1kB time=00:00:00.44 bitrate=  13.4kbits/s speed=0.00679x    frame=  114 fps=1.7 q=43.0 size=       1kB time=00:00:00.48 bitrate=  12.2kbits/s speed=0.00709x    frame=  115 fps=1.6 q=43.0 size=       1kB time=00:00:00.50 bitrate=  11.8kbits/s speed=0.00714x    frame=  116 fps=1.6 q=42.0 size=       1kB time=00:00:00.52 bitrate=  11.3kbits/s speed=0.00732x    frame=  119 fps=1.6 q=42.0 size=       1kB time=00:00:00.58 bitrate=  10.1kbits/s speed=0.00801x    frame=  120 fps=1.6 q=42.0 size=       1kB time=00:00:00.60 bitrate=   9.8kbits/s speed=0.00808x    frame=  121 fps=1.5 q=41.0 size=       1kB time=00:00:00.62 bitrate=   9.5kbits/s speed=0.00788x    frame=  122 fps=1.5 q=38.0 size=       1kB time=00:00:00.64 bitrate=   9.2kbits/s speed=0.00803x    frame=  125 fps=1.5 q=41.0 size=       1kB time=00:00:00.70 bitrate=   8.4kbits/s speed=0.00866x    frame=  126 fps=1.5 q=41.0 size=       1kB time=00:00:00.72 bitrate=   8.2kbits/s speed=0.00876x    frame=  127 fps=1.5 q=40.0 size=       1kB time=00:00:00.74 bitrate=   7.9kbits/s speed=0.00867x    frame=  128 fps=1.4 q=40.0 size=       1kB time=00:00:00.76 bitrate=   7.7kbits/s speed=0.00824x    frame=  129 fps=1.4 q=40.0 size=       1kB time=00:00:00.78 bitrate=   7.5kbits/s speed=0.00836x    frame=  130 fps=1.4 q=39.0 size=       1kB time=00:00:00.80 bitrate=   7.4kbits/s speed=0.00846x    frame=  134 fps=1.3 q=37.0 size=       1kB time=00:00:00.88 bitrate=   6.7kbits/s speed=0.00863x    frame=  135 fps=1.3 q=38.0 size=       1kB time=00:00:00.90 bitrate=   6.5kbits/s speed=0.00872x    frame=  137 fps=1.3 q=38.0 size=       1kB time=00:00:00.94 bitrate=   6.3kbits/s speed=0.00901x    frame=  139 fps=1.3 q=38.0 size=       1kB time=00:00:00.98 bitrate=   6.0kbits/s speed=0.00934x    frame=  140 fps=1.2 q=38.0 size=       1kB time=00:00:01.00 bitrate=   5.9kbits/s speed=0.00841x    frame=  141 fps=1.2 q=37.0 size=       1kB time=00:00:01.02 bitrate=   5.8kbits/s speed=0.00851x    frame=  142 fps=1.2 q=37.0 size=       1kB time=00:00:01.04 bitrate=   5.7kbits/s speed=0.00859x    frame=  146 fps=1.1 q=37.0 size=       1kB time=00:00:01.12 bitrate=   5.3kbits/s speed=0.00863x    frame=  147 fps=1.1 q=37.0 size=       1kB time=00:00:01.14 bitrate=   5.2kbits/s speed=0.00873x    frame=  148 fps=1.1 q=37.0 size=       1kB time=00:00:01.16 bitrate=   5.1kbits/s speed=0.00864x    frame=  150 fps=1.0 q=37.0 size=       1kB time=00:00:01.20 bitrate=   4.9kbits/s speed=0.0082x    frame=  151 fps=1.0 q=37.0 size=       1kB time=00:00:01.22 bitrate=   4.8kbits/s speed=0.00827x    frame=  152 fps=1.0 q=37.0 size=       1kB time=00:00:01.24 bitrate=   4.7kbits/s speed=0.00832x    frame=  156 fps=1.0 q=36.0 size=       1kB time=00:00:01.32 bitrate=   4.5kbits/s speed=0.00823x    frame=  157 fps=1.0 q=36.0 size=       1kB time=00:00:01.34 bitrate=   4.4kbits/s speed=0.00829x    frame=  158 fps=1.0 q=36.0 size=       1kB time=00:00:01.36 bitrate=   4.3kbits/s speed=0.00834x    frame=  159 fps=1.0 q=36.0 size=       1kB time=00:00:01.38 bitrate=   4.3kbits/s speed=0.00841x    frame=  160 fps=0.9 q=36.0 size=       1kB time=00:00:01.40 bitrate=   4.2kbits/s speed=0.00796x    frame=  161 fps=0.9 q=36.0 size=       1kB time=00:00:01.42 bitrate=   4.1kbits/s speed=0.00801x    frame=  162 fps=0.9 q=36.0 size=       1kB time=00:00:01.44 bitrate=   4.1kbits/s speed=0.00806x    frame=  163 fps=0.9 q=36.0 size=       1kB time=00:00:01.46 bitrate=   4.0kbits/s speed=0.00805x    frame=  165 fps=0.9 q=36.0 size=       1kB time=00:00:01.50 bitrate=   3.9kbits/s speed=0.0082x    frame=  166 fps=0.9 q=36.0 size=       1kB time=00:00:01.52 bitrate=   3.9kbits/s speed=0.00783x    frame=  167 fps=0.9 q=36.0 size=       1kB time=00:00:01.54 bitrate=   3.8kbits/s speed=0.00791x    frame=  168 fps=0.9 q=36.0 size=       1kB time=00:00:01.56 bitrate=   3.8kbits/s speed=0.00795x    frame=  169 fps=0.8 q=36.0 size=       1kB time=00:00:01.58 bitrate=   3.7kbits/s speed=0.00793x    frame=  170 fps=0.8 q=36.0 size=       1kB time=00:00:01.60 bitrate=   3.7kbits/s speed=0.00754x    frame=  171 fps=0.8 q=36.0 size=       1kB time=00:00:01.62 bitrate=   3.6kbits/s speed=0.00758x    frame=  172 fps=0.8 q=36.0 size=       1kB time=00:00:01.64 bitrate=   3.6kbits/s speed=0.00763x    frame=  173 fps=0.8 q=36.0 size=       1kB time=00:00:01.66 bitrate=   3.5kbits/s speed=0.0077x    frame=  176 fps=0.8 q=35.0 size=       1kB time=00:00:01.72 bitrate=   3.4kbits/s speed=0.00756x    frame=  177 fps=0.8 q=36.0 size=       1kB time=00:00:01.74 bitrate=   3.4kbits/s speed=0.00755x    frame=  178 fps=0.8 q=36.0 size=       1kB time=00:00:01.76 bitrate=   3.3kbits/s speed=0.00761x    frame=  179 fps=0.8 q=36.0 size=       1kB time=00:00:01.78 bitrate=   3.3kbits/s speed=0.00764x    frame=  180 fps=0.8 q=35.0 size=       1kB time=00:00:01.80 bitrate=   3.3kbits/s speed=0.00762x    frame=  181 fps=0.7 q=35.0 size=       1kB time=00:00:01.82 bitrate=   3.2kbits/s speed=0.00725x    frame=  182 fps=0.7 q=35.0 size=       1kB time=00:00:01.84 bitrate=   3.2kbits/s speed=0.00729x    frame=  183 fps=0.7 q=35.0 size=       1kB time=00:00:01.86 bitrate=   3.2kbits/s speed=0.00733x    frame=  185 fps=0.7 q=35.0 size=       1kB time=00:00:01.90 bitrate=   3.1kbits/s speed=0.00746x    frame=  187 fps=0.7 q=35.0 size=       1kB time=00:00:01.94 bitrate=   3.0kbits/s speed=0.00726x    frame=  188 fps=0.7 q=35.0 size=       1kB time=00:00:01.96 bitrate=   3.0kbits/s speed=0.00724x    frame=  189 fps=0.7 q=35.0 size=       1kB time=00:00:01.98 bitrate=   3.0kbits/s speed=0.00726x    frame=  190 fps=0.7 q=35.0 size=       1kB time=00:00:02.00 bitrate=   2.9kbits/s speed=0.00727x    frame=  192 fps=0.7 q=35.0 size=       1kB time=00:00:02.04 bitrate=   2.9kbits/s speed=0.00707x    frame=  193 fps=0.7 q=35.0 size=       1kB time=00:00:02.06 bitrate=   2.9kbits/s speed=0.0071x    frame=  194 fps=0.7 q=35.0 size=       1kB time=00:00:02.08 bitrate=   2.8kbits/s speed=0.00713x    frame=  196 fps=0.7 q=35.0 size=       1kB time=00:00:02.12 bitrate=   2.8kbits/s speed=0.00725x    frame=  198 fps=0.6 q=35.0 size=       1kB time=00:00:02.16 bitrate=   2.7kbits/s speed=0.00707x    frame=  199 fps=0.6 q=35.0 size=       1kB time=00:00:02.18 bitrate=   2.7kbits/s speed=0.007x    frame=  200 fps=0.6 q=35.0 size=       1kB time=00:00:02.20 bitrate=   2.7kbits/s speed=0.00703x    frame=  202 fps=0.6 q=35.0 size=       1kB time=00:00:02.24 bitrate=   2.6kbits/s speed=0.00713x    frame=  203 fps=0.6 q=35.0 size=       1kB time=00:00:02.26 bitrate=   2.6kbits/s speed=0.00696x    frame=  204 fps=0.6 q=35.0 size=       1kB time=00:00:02.28 bitrate=   2.6kbits/s speed=0.00694x    frame=  205 fps=0.6 q=35.0 size=       1kB time=00:00:02.30 bitrate=   2.6kbits/s speed=0.00694x    frame=  206 fps=0.6 q=35.0 size=       1kB time=00:00:02.32 bitrate=   2.5kbits/s speed=0.00698x    frame=  209 fps=0.6 q=35.0 size=       1kB time=00:00:02.38 bitrate=   2.5kbits/s speed=0.00697x    frame=  210 fps=0.6 q=35.0 size=       1kB time=00:00:02.40 bitrate=   2.5kbits/s speed=0.00672x    frame=  211 fps=0.6 q=35.0 size=       1kB time=00:00:02.42 bitrate=   2.4kbits/s speed=0.00675x    frame=  212 fps=0.6 q=35.0 size=       1kB time=00:00:02.44 bitrate=   2.4kbits/s speed=0.00678x    frame=  216 fps=0.6 q=35.0 size=       1kB time=00:00:02.52 bitrate=   2.3kbits/s speed=0.00672x    frame=  217 fps=0.6 q=35.0 size=       1kB time=00:00:02.54 bitrate=   2.3kbits/s speed=0.00675x    frame=  218 fps=0.6 q=35.0 size=       1kB time=00:00:02.56 bitrate=   2.3kbits/s speed=0.00676x    frame=  219 fps=0.6 q=35.0 size=       1kB time=00:00:02.58 bitrate=   2.3kbits/s speed=0.00679x    frame=  220 fps=0.6 q=35.0 size=       1kB time=00:00:02.60 bitrate=   2.3kbits/s speed=0.00682x    frame=  221 fps=0.6 q=35.0 size=       1kB time=00:00:02.62 bitrate=   2.2kbits/s speed=0.00666x    frame=  222 fps=0.6 q=35.0 size=       1kB time=00:00:02.64 bitrate=   2.2kbits/s speed=0.00663x    frame=  223 fps=0.6 q=35.0 size=       1kB time=00:00:02.66 bitrate=   2.2kbits/s speed=0.00666x    frame=  224 fps=0.6 q=35.0 size=       1kB time=00:00:02.68 bitrate=   2.2kbits/s speed=0.00669x    frame=  227 fps=0.6 q=35.0 size=       1kB time=00:00:02.74 bitrate=   2.1kbits/s speed=0.00665x    frame=  228 fps=0.5 q=35.0 size=       1kB time=00:00:02.76 bitrate=   2.1kbits/s speed=0.00663x    frame=  229 fps=0.5 q=35.0 size=       1kB time=00:00:02.78 bitrate=   2.1kbits/s speed=0.00663x    frame=  230 fps=0.5 q=35.0 size=       1kB time=00:00:02.80 bitrate=   2.1kbits/s speed=0.00658x    frame=  232 fps=0.5 q=35.0 size=       1kB time=00:00:02.84 bitrate=   2.1kbits/s speed=0.00655x    frame=  233 fps=0.5 q=35.0 size=       1kB time=00:00:02.86 bitrate=   2.1kbits/s speed=0.00657x    frame=  234 fps=0.5 q=35.0 size=       1kB time=00:00:02.88 bitrate=   2.0kbits/s speed=0.00659x    frame=  235 fps=0.5 q=35.0 size=       1kB time=00:00:02.90 bitrate=   2.0kbits/s speed=0.0066x    frame=  236 fps=0.5 q=35.0 size=       1kB time=00:00:02.92 bitrate=   2.0kbits/s speed=0.00658x    frame=  237 fps=0.5 q=35.0 size=       1kB time=00:00:02.94 bitrate=   2.0kbits/s speed=0.0066x    frame=  238 fps=0.5 q=35.0 size=       1kB time=00:00:02.96 bitrate=   2.0kbits/s speed=0.00651x    frame=  239 fps=0.5 q=35.0 size=       1kB time=00:00:02.98 bitrate=   2.0kbits/s speed=0.00652x    frame=  240 fps=0.5 q=35.0 size=       1kB time=00:00:03.00 bitrate=   2.0kbits/s speed=0.00643x    frame=  241 fps=0.5 q=35.0 size=       1kB time=00:00:03.02 bitrate=   1.9kbits/s speed=0.00645x    frame=  242 fps=0.5 q=35.0 size=       1kB time=00:00:03.04 bitrate=   1.9kbits/s speed=0.00647x    frame=  245 fps=0.5 q=35.0 size=       1kB time=00:00:03.10 bitrate=   1.9kbits/s speed=0.00656x    frame=  246 fps=0.5 q=35.0 size=       1kB time=00:00:03.12 bitrate=   1.9kbits/s speed=0.00642x    frame=  247 fps=0.5 q=35.0 size=       1kB time=00:00:03.14 bitrate=   1.9kbits/s speed=0.00643x    frame=  251 fps=0.5 q=35.0 size=       1kB time=00:00:03.22 bitrate=   1.8kbits/s speed=0.00637x    frame=  252 fps=0.5 q=35.0 size=       1kB time=00:00:03.24 bitrate=   1.8kbits/s speed=0.00638x    frame=  253 fps=0.5 q=35.0 size=       1kB time=00:00:03.26 bitrate=   1.8kbits/s speed=0.00638x    frame=  257 fps=0.5 q=35.0 size=       1kB time=00:00:03.34 bitrate=   1.8kbits/s speed=0.00642x    frame=  258 fps=0.5 q=35.0 size=       1kB time=00:00:03.36 bitrate=   1.8kbits/s speed=0.00639x    frame=  259 fps=0.5 q=35.0 size=       1kB time=00:00:03.38 bitrate=   1.7kbits/s speed=0.00632x    frame=  260 fps=0.5 q=35.0 size=       1kB time=00:00:03.40 bitrate=   1.7kbits/s speed=0.00634x    frame=  261 fps=0.5 q=35.0 size=       1kB time=00:00:03.42 bitrate=   1.7kbits/s speed=0.00636x    frame=  263 fps=0.5 q=35.0 size=       1kB time=00:00:03.46 bitrate=   1.7kbits/s speed=0.00643x    frame=  264 fps=0.5 q=34.0 size=       1kB time=00:00:03.48 bitrate=   1.7kbits/s speed=0.0064x    frame=  265 fps=0.5 q=35.0 size=       1kB time=00:00:03.50 bitrate=   1.7kbits/s speed=0.0063x    frame=  266 fps=0.5 q=35.0 size=       1kB time=00:00:03.52 bitrate=   1.7kbits/s speed=0.0063x    frame=  267 fps=0.5 q=35.0 size=       1kB time=00:00:03.54 bitrate=   1.7kbits/s speed=0.00632x    frame=  269 fps=0.5 q=35.0 size=       1kB time=00:00:03.58 bitrate=   1.6kbits/s speed=0.00638x    frame=  270 fps=0.5 q=35.0 size=       1kB time=00:00:03.60 bitrate=   1.6kbits/s speed=0.00626x    frame=  271 fps=0.5 q=35.0 size=       1kB time=00:00:03.62 bitrate=   1.6kbits/s speed=0.00627x    frame=  272 fps=0.5 q=34.0 size=       1kB time=00:00:03.64 bitrate=   1.6kbits/s speed=0.00629x    frame=  276 fps=0.5 q=34.0 size=       1kB time=00:00:03.72 bitrate=   1.6kbits/s speed=0.00622x    frame=  278 fps=0.5 q=34.0 size=       1kB time=00:00:03.76 bitrate=   1.6kbits/s speed=0.00626x    frame=  280 fps=0.5 q=34.0 size=       1kB time=00:00:03.80 bitrate=   1.5kbits/s speed=0.00632x    frame=  282 fps=0.5 q=34.0 size=       1kB time=00:00:03.84 bitrate=   1.5kbits/s speed=0.00622x    frame=  284 fps=0.5 q=34.0 size=       1kB time=00:00:03.88 bitrate=   1.5kbits/s speed=0.00619x    frame=  285 fps=0.5 q=34.0 size=       1kB time=00:00:03.90 bitrate=   1.5kbits/s speed=0.0062x    frame=  286 fps=0.5 q=34.0 size=       1kB time=00:00:03.92 bitrate=   1.5kbits/s speed=0.00621x    frame=  288 fps=0.5 q=34.0 size=       1kB time=00:00:03.96 bitrate=   1.5kbits/s speed=0.00626x    frame=  289 fps=0.5 q=34.0 size=       1kB time=00:00:03.98 bitrate=   1.5kbits/s speed=0.00628x    frame=  290 fps=0.4 q=34.0 size=       1kB time=00:00:04.00 bitrate=   1.5kbits/s speed=0.00617x    frame=  291 fps=0.4 q=34.0 size=       1kB time=00:00:04.02 bitrate=   1.5kbits/s speed=0.00618x    frame=  292 fps=0.4 q=34.0 size=       1kB time=00:00:04.04 bitrate=   1.5kbits/s speed=0.00619x    frame=  294 fps=0.5 q=34.0 size=       1kB time=00:00:04.08 bitrate=   1.4kbits/s speed=0.00625x    frame=  295 fps=0.5 q=34.0 size=       1kB time=00:00:04.10 bitrate=   1.4kbits/s speed=0.00627x    frame=  296 fps=0.4 q=34.0 size=       1kB time=00:00:04.12 bitrate=   1.4kbits/s speed=0.00619x    frame=  297 fps=0.4 q=34.0 size=       1kB time=00:00:04.14 bitrate=   1.4kbits/s speed=0.00609x    frame=  298 fps=0.4 q=34.0 size=       1kB time=00:00:04.16 bitrate=   1.4kbits/s speed=0.00611x    frame=  299 fps=0.4 q=34.0 size=       1kB time=00:00:04.18 bitrate=   1.4kbits/s speed=0.00613x    frame=  301 fps=0.4 q=34.0 size=       1kB time=00:00:04.22 bitrate=   1.4kbits/s speed=0.00618x    frame=  303 fps=0.4 q=34.0 size=       1kB time=00:00:04.26 bitrate=   1.4kbits/s speed=0.00609x    frame=  305 fps=0.4 q=34.0 size=       1kB time=00:00:04.30 bitrate=   1.4kbits/s speed=0.00614x    frame=  306 fps=0.4 q=34.0 size=       1kB time=00:00:04.32 bitrate=   1.4kbits/s speed=0.00616x    frame=  307 fps=0.4 q=34.0 size=       1kB time=00:00:04.34 bitrate=   1.4kbits/s speed=0.00607x    frame=  308 fps=0.4 q=34.0 size=       1kB time=00:00:04.36 bitrate=   1.4kbits/s speed=0.00609x    frame=  309 fps=0.4 q=34.0 size=       1kB time=00:00:04.38 bitrate=   1.3kbits/s speed=0.00608x    frame=  310 fps=0.4 q=34.0 size=       1kB time=00:00:04.40 bitrate=   1.3kbits/s speed=0.0061x    frame=  312 fps=0.4 q=34.0 size=       1kB time=00:00:04.44 bitrate=   1.3kbits/s speed=0.00614x    frame=  313 fps=0.4 q=34.0 size=       1kB time=00:00:04.46 bitrate=   1.3kbits/s speed=0.00607x    frame=  315 fps=0.4 q=34.0 size=       1kB time=00:00:04.50 bitrate=   1.3kbits/s speed=0.00609x    frame=  316 fps=0.4 q=34.0 size=       1kB time=00:00:04.52 bitrate=   1.3kbits/s speed=0.00611x    frame=  317 fps=0.4 q=34.0 size=       1kB time=00:00:04.54 bitrate=   1.3kbits/s speed=0.0061x    frame=  319 fps=0.4 q=34.0 size=       1kB time=00:00:04.58 bitrate=   1.3kbits/s speed=0.00599x    frame=  320 fps=0.4 q=34.0 size=       1kB time=00:00:04.60 bitrate=   1.3kbits/s speed=0.00601x    frame=  321 fps=0.4 q=34.0 size=       1kB time=00:00:04.62 bitrate=   1.3kbits/s speed=0.00602x    frame=  325 fps=0.4 q=34.0 size=       1kB time=00:00:04.70 bitrate=   1.3kbits/s speed=0.00601x    frame=  326 fps=0.4 q=34.0 size=       1kB time=00:00:04.72 bitrate=   1.2kbits/s speed=0.00603x    frame=  327 fps=0.4 q=34.0 size=       1kB time=00:00:04.74 bitrate=   1.2kbits/s speed=0.00602x    frame=  328 fps=0.4 q=34.0 size=       1kB time=00:00:04.76 bitrate=   1.2kbits/s speed=0.00603x    frame=  329 fps=0.4 q=34.0 size=       1kB time=00:00:04.78 bitrate=   1.2kbits/s speed=0.00597x    frame=  330 fps=0.4 q=34.0 size=       1kB time=00:00:04.80 bitrate=   1.2kbits/s speed=0.00599x    frame=  331 fps=0.4 q=34.0 size=       1kB time=00:00:04.82 bitrate=   1.2kbits/s speed=0.006x    frame=  332 fps=0.4 q=31.0 size=       1kB time=00:00:04.84 bitrate=   1.2kbits/s speed=0.00602x    frame=  333 fps=0.4 q=35.0 size=       1kB time=00:00:04.86 bitrate=   1.2kbits/s speed=0.00603x    frame=  334 fps=0.4 q=35.0 size=       1kB time=00:00:04.88 bitrate=   1.2kbits/s speed=0.00604x    frame=  335 fps=0.4 q=35.0 size=       1kB time=00:00:04.90 bitrate=   1.2kbits/s speed=0.006x    frame=  337 fps=0.4 q=35.0 size=    4464kB time=00:00:04.94 bitrate=7401.0kbits/s speed=0.00604x    frame=  341 fps=0.4 q=35.0 size=    4464kB time=00:00:05.02 bitrate=7283.1kbits/s speed=0.00608x    frame=  343 fps=0.4 q=36.0 size=    4464kB time=00:00:05.06 bitrate=7225.6kbits/s speed=0.00611x    frame=  347 fps=0.4 q=35.0 size=    4464kB time=00:00:05.14 bitrate=7113.1kbits/s speed=0.00617x    frame=  349 fps=0.4 q=36.0 size=    4464kB time=00:00:05.18 bitrate=7058.2kbits/s speed=0.00619x    frame=  350 fps=0.4 q=36.0 size=    4464kB time=00:00:05.20 bitrate=7031.1kbits/s speed=0.00621x    frame=  351 fps=0.4 q=36.0 size=    4464kB time=00:00:05.22 bitrate=7004.1kbits/s speed=0.00622x    frame=  352 fps=0.4 q=36.0 size=    4464kB time=00:00:05.24 bitrate=6977.4kbits/s speed=0.00624x    frame=  353 fps=0.4 q=36.0 size=    4464kB time=00:00:05.26 bitrate=6950.9kbits/s speed=0.00623x    frame=  354 fps=0.4 q=36.0 size=    4464kB time=00:00:05.28 bitrate=6924.5kbits/s speed=0.00625x    frame=  355 fps=0.4 q=36.0 size=    4464kB time=00:00:05.30 bitrate=6898.4kbits/s speed=0.00625x    frame=  356 fps=0.4 q=36.0 size=    4464kB time=00:00:05.32 bitrate=6872.5kbits/s speed=0.00626x    frame=  358 fps=0.4 q=36.0 size=    4464kB time=00:00:05.36 bitrate=6821.2kbits/s speed=0.00629x    frame=  359 fps=0.4 q=36.0 size=    4464kB time=00:00:05.38 bitrate=6795.9kbits/s speed=0.00626x    frame=  360 fps=0.4 q=36.0 size=    4464kB time=00:00:05.40 bitrate=6770.7kbits/s speed=0.00627x    frame=  361 fps=0.4 q=36.0 size=    4464kB time=00:00:05.42 bitrate=6745.7kbits/s speed=0.00629x    frame=  363 fps=0.4 q=36.0 size=    4464kB time=00:00:05.46 bitrate=6696.3kbits/s speed=0.00633x    frame=  364 fps=0.4 q=36.0 size=    4464kB time=00:00:05.48 bitrate=6671.9kbits/s speed=0.00635x    frame=  365 fps=0.4 q=36.0 size=    4464kB time=00:00:05.50 bitrate=6647.6kbits/s speed=0.00631x    frame=  366 fps=0.4 q=36.0 size=    4464kB time=00:00:05.52 bitrate=6623.5kbits/s speed=0.00633x    frame=  369 fps=0.4 q=36.0 size=    4464kB time=00:00:05.58 bitrate=6552.3kbits/s speed=0.00639x    frame=  370 fps=0.4 q=36.0 size=    4464kB time=00:00:05.60 bitrate=6528.9kbits/s speed=0.00641x    frame=  371 fps=0.4 q=36.0 size=    4464kB time=00:00:05.62 bitrate=6505.7kbits/s speed=0.00635x    frame=  372 fps=0.4 q=36.0 size=    4464kB time=00:00:05.64 bitrate=6482.6kbits/s speed=0.00636x    frame=  374 fps=0.4 q=36.0 size=    4464kB time=00:00:05.68 bitrate=6437.0kbits/s speed=0.00636x    frame=  375 fps=0.4 q=36.0 size=    4464kB time=00:00:05.70 bitrate=6414.4kbits/s speed=0.00637x    frame=  376 fps=0.4 q=36.0 size=    4464kB time=00:00:05.72 bitrate=6392.0kbits/s speed=0.00639x    frame=  377 fps=0.4 q=36.0 size=    4464kB time=00:00:05.74 bitrate=6369.7kbits/s speed=0.0064x    frame=  378 fps=0.4 q=36.0 size=    4464kB time=00:00:05.76 bitrate=6347.6kbits/s speed=0.00642x    frame=  379 fps=0.4 q=36.0 size=    4464kB time=00:00:05.78 bitrate=6325.6kbits/s speed=0.00643x    frame=  380 fps=0.4 q=36.0 size=    4464kB time=00:00:05.80 bitrate=6303.8kbits/s speed=0.00641x    frame=  381 fps=0.4 q=36.0 size=    4464kB time=00:00:05.82 bitrate=6282.2kbits/s speed=0.0064x    frame=  382 fps=0.4 q=36.0 size=    4464kB time=00:00:05.84 bitrate=6260.7kbits/s speed=0.00641x    frame=  383 fps=0.4 q=36.0 size=    4464kB time=00:00:05.86 bitrate=6239.3kbits/s speed=0.00643x    frame=  385 fps=0.4 q=36.0 size=    4464kB time=00:00:05.90 bitrate=6197.0kbits/s speed=0.00646x    frame=  386 fps=0.4 q=36.0 size=    4464kB time=00:00:05.92 bitrate=6176.1kbits/s speed=0.00643x    frame=  387 fps=0.4 q=36.0 size=    4464kB time=00:00:05.94 bitrate=6155.3kbits/s speed=0.00643x    frame=  388 fps=0.4 q=36.0 size=    4464kB time=00:00:05.96 bitrate=6134.6kbits/s speed=0.00644x    frame=  389 fps=0.4 q=36.0 size=    4464kB time=00:00:05.98 bitrate=6114.1kbits/s speed=0.00641x    frame=  390 fps=0.4 q=36.0 size=    4464kB time=00:00:06.00 bitrate=6093.7kbits/s speed=0.00643x    frame=  391 fps=0.4 q=36.0 size=    4464kB time=00:00:06.02 bitrate=6073.5kbits/s speed=0.00644x    frame=  393 fps=0.4 q=36.0 size=    4464kB time=00:00:06.06 bitrate=6033.4kbits/s speed=0.00647x    frame=  394 fps=0.4 q=36.0 size=    4464kB time=00:00:06.08 bitrate=6013.6kbits/s speed=0.00647x    frame=  395 fps=0.4 q=36.0 size=    4464kB time=00:00:06.10 bitrate=5993.9kbits/s speed=0.00641x    frame=  396 fps=0.4 q=36.0 size=    4464kB time=00:00:06.12 bitrate=5974.3kbits/s speed=0.00642x    frame=  397 fps=0.4 q=36.0 size=    4464kB time=00:00:06.14 bitrate=5954.8kbits/s speed=0.00643x    frame=  399 fps=0.4 q=36.0 size=    4464kB time=00:00:06.18 bitrate=5916.3kbits/s speed=0.00646x    frame=  400 fps=0.4 q=36.0 size=    4464kB time=00:00:06.20 bitrate=5897.2kbits/s speed=0.00648x    frame=  401 fps=0.4 q=36.0 size=    4464kB time=00:00:06.22 bitrate=5878.2kbits/s speed=0.00644x    frame=  402 fps=0.4 q=36.0 size=    4464kB time=00:00:06.24 bitrate=5859.4kbits/s speed=0.00645x    frame=  403 fps=0.4 q=36.0 size=    4464kB time=00:00:06.26 bitrate=5840.7kbits/s speed=0.00641x    frame=  404 fps=0.4 q=36.0 size=    4464kB time=00:00:06.28 bitrate=5822.1kbits/s speed=0.00642x    frame=  405 fps=0.4 q=36.0 size=    4464kB time=00:00:06.30 bitrate=5803.6kbits/s speed=0.00644x    frame=  407 fps=0.4 q=36.0 size=    4464kB time=00:00:06.34 bitrate=5767.0kbits/s speed=0.00646x    frame=  408 fps=0.4 q=36.0 size=    4464kB time=00:00:06.36 bitrate=5748.9kbits/s speed=0.00647x    frame=  409 fps=0.4 q=36.0 size=    4464kB time=00:00:06.38 bitrate=5730.8kbits/s speed=0.00641x    frame=  410 fps=0.4 q=36.0 size=    4464kB time=00:00:06.40 bitrate=5712.9kbits/s speed=0.00642x    frame=  411 fps=0.4 q=36.0 size=    4464kB time=00:00:06.42 bitrate=5695.1kbits/s speed=0.00643x    frame=  413 fps=0.4 q=36.0 size=    4464kB time=00:00:06.46 bitrate=5659.9kbits/s speed=0.00646x    frame=  414 fps=0.4 q=36.0 size=    4464kB time=00:00:06.48 bitrate=5642.4kbits/s speed=0.00646x    frame=  415 fps=0.4 q=36.0 size=    4464kB time=00:00:06.50 bitrate=5625.1kbits/s speed=0.00641x    frame=  416 fps=0.4 q=36.0 size=    4464kB time=00:00:06.52 bitrate=5607.8kbits/s speed=0.00637x    frame=  417 fps=0.4 q=36.0 size=    4464kB time=00:00:06.54 bitrate=5590.7kbits/s speed=0.00638x    frame=  418 fps=0.4 q=36.0 size=    4464kB time=00:00:06.56 bitrate=5573.6kbits/s speed=0.0064x    frame=  419 fps=0.4 q=36.0 size=    4464kB time=00:00:06.58 bitrate=5556.7kbits/s speed=0.00641x    frame=  421 fps=0.4 q=36.0 size=    4464kB time=00:00:06.62 bitrate=5523.1kbits/s speed=0.00643x    frame=  422 fps=0.4 q=36.0 size=    4464kB time=00:00:06.64 bitrate=5506.5kbits/s speed=0.00637x    frame=  423 fps=0.4 q=36.0 size=    4464kB time=00:00:06.66 bitrate=5489.9kbits/s speed=0.00638x    frame=  425 fps=0.4 q=36.0 size=    4464kB time=00:00:06.70 bitrate=5457.2kbits/s speed=0.0064x    frame=  426 fps=0.4 q=36.0 size=    4464kB time=00:00:06.72 bitrate=5440.9kbits/s speed=0.00638x    frame=  427 fps=0.4 q=36.0 size=    4464kB time=00:00:06.74 bitrate=5424.8kbits/s speed=0.00634x    frame=  428 fps=0.4 q=36.0 size=    4464kB time=00:00:06.76 bitrate=5408.7kbits/s speed=0.00635x    frame=  429 fps=0.4 q=36.0 size=    4464kB time=00:00:06.78 bitrate=5392.8kbits/s speed=0.00636x    frame=  430 fps=0.4 q=36.0 size=    4464kB time=00:00:06.80 bitrate=5376.9kbits/s speed=0.00638x    frame=  432 fps=0.4 q=35.0 size=    4464kB time=00:00:06.84 bitrate=5345.5kbits/s speed=0.00638x    frame=  433 fps=0.4 q=36.0 size=    4464kB time=00:00:06.86 bitrate=5329.9kbits/s speed=0.00633x    frame=  435 fps=0.4 q=36.0 size=    4464kB time=00:00:06.90 bitrate=5299.0kbits/s speed=0.00637x    frame=  437 fps=0.4 q=36.0 size=    4464kB time=00:00:06.94 bitrate=5268.5kbits/s speed=0.00638x    frame=  438 fps=0.4 q=35.0 size=    4464kB time=00:00:06.96 bitrate=5253.3kbits/s speed=0.0063x    frame=  439 fps=0.4 q=35.0 size=    4464kB time=00:00:06.98 bitrate=5238.3kbits/s speed=0.00631x    frame=  440 fps=0.4 q=35.0 size=    4464kB time=00:00:07.00 bitrate=5223.3kbits/s speed=0.00632x    frame=  444 fps=0.4 q=35.0 size=    4464kB time=00:00:07.08 bitrate=5164.3kbits/s speed=0.00632x    frame=  445 fps=0.4 q=35.0 size=    4464kB time=00:00:07.10 bitrate=5149.8kbits/s speed=0.00633x    frame=  446 fps=0.4 q=35.0 size=    4464kB time=00:00:07.12 bitrate=5135.3kbits/s speed=0.00632x    frame=  448 fps=0.4 q=35.0 size=    4464kB time=00:00:07.16 bitrate=5106.6kbits/s speed=0.00628x    frame=  449 fps=0.4 q=35.0 size=    4464kB time=00:00:07.18 bitrate=5092.4kbits/s speed=0.00629x    frame=  450 fps=0.4 q=35.0 size=    4464kB time=00:00:07.20 bitrate=5078.3kbits/s speed=0.0063x    frame=  452 fps=0.4 q=35.0 size=    4464kB time=00:00:07.24 bitrate=5050.2kbits/s speed=0.00633x    frame=  453 fps=0.4 q=35.0 size=    4464kB time=00:00:07.26 bitrate=5036.3kbits/s speed=0.00633x    frame=  454 fps=0.4 q=35.0 size=    4464kB time=00:00:07.28 bitrate=5022.5kbits/s speed=0.0063x    frame=  455 fps=0.4 q=35.0 size=    4464kB time=00:00:07.30 bitrate=5008.7kbits/s speed=0.00629x    frame=  457 fps=0.4 q=35.0 size=    4464kB time=00:00:07.34 bitrate=4981.4kbits/s speed=0.00631x    frame=  458 fps=0.4 q=35.0 size=    4464kB time=00:00:07.36 bitrate=4967.9kbits/s speed=0.00625x    frame=  459 fps=0.4 q=35.0 size=    4464kB time=00:00:07.38 bitrate=4954.4kbits/s speed=0.00626x    frame=  460 fps=0.4 q=35.0 size=    4464kB time=00:00:07.40 bitrate=4941.0kbits/s speed=0.00627x    frame=  463 fps=0.4 q=35.0 size=    4464kB time=00:00:07.46 bitrate=4901.3kbits/s speed=0.00631x    frame=  464 fps=0.4 q=35.0 size=    4464kB time=00:00:07.48 bitrate=4888.2kbits/s speed=0.00625x    frame=  465 fps=0.4 q=35.0 size=    4464kB time=00:00:07.50 bitrate=4875.2kbits/s speed=0.00626x    frame=  467 fps=0.4 q=35.0 size=    4464kB time=00:00:07.54 bitrate=4849.3kbits/s speed=0.00628x    frame=  468 fps=0.4 q=35.0 size=    4464kB time=00:00:07.56 bitrate=4836.5kbits/s speed=0.00624x    frame=  469 fps=0.4 q=35.0 size=    4464kB time=00:00:07.58 bitrate=4823.7kbits/s speed=0.00625x    frame=  470 fps=0.4 q=35.0 size=    4464kB time=00:00:07.60 bitrate=4811.0kbits/s speed=0.00626x    frame=  471 fps=0.4 q=35.0 size=    4464kB time=00:00:07.62 bitrate=4798.4kbits/s speed=0.00627x    frame=  472 fps=0.4 q=35.0 size=    4464kB time=00:00:07.64 bitrate=4785.8kbits/s speed=0.00628x    frame=  473 fps=0.4 q=35.0 size=    4464kB time=00:00:07.66 bitrate=4773.3kbits/s speed=0.00629x    frame=  474 fps=0.4 q=35.0 size=    4464kB time=00:00:07.68 bitrate=4760.9kbits/s speed=0.00622x    frame=  475 fps=0.4 q=35.0 size=    4464kB time=00:00:07.70 bitrate=4748.5kbits/s speed=0.00624x    frame=  476 fps=0.4 q=35.0 size=    4464kB time=00:00:07.72 bitrate=4736.2kbits/s speed=0.00624x    frame=  478 fps=0.4 q=35.0 size=    4464kB time=00:00:07.76 bitrate=4711.8kbits/s speed=0.00627x    frame=  479 fps=0.4 q=35.0 size=    4464kB time=00:00:07.78 bitrate=4699.7kbits/s speed=0.00628x    frame=  480 fps=0.4 q=35.0 size=    4464kB time=00:00:07.80 bitrate=4687.7kbits/s speed=0.00619x    frame=  481 fps=0.4 q=35.0 size=    4464kB time=00:00:07.82 bitrate=4675.7kbits/s speed=0.0062x    frame=  482 fps=0.4 q=35.0 size=    4464kB time=00:00:07.84 bitrate=4663.8kbits/s speed=0.00622x    frame=  486 fps=0.4 q=35.0 size=    4464kB time=00:00:07.92 bitrate=4616.7kbits/s speed=0.00618x    frame=  487 fps=0.4 q=35.0 size=    4464kB time=00:00:07.94 bitrate=4605.0kbits/s speed=0.00619x    frame=  490 fps=0.4 q=35.0 size=    4464kB time=00:00:08.00 bitrate=4570.5kbits/s speed=0.00624x    frame=  492 fps=0.4 q=35.0 size=    4464kB time=00:00:08.04 bitrate=4547.8kbits/s speed=0.0062x    frame=  493 fps=0.4 q=35.0 size=    4464kB time=00:00:08.06 bitrate=4536.5kbits/s speed=0.00621x    frame=  495 fps=0.4 q=35.0 size=    4464kB time=00:00:08.10 bitrate=4514.1kbits/s speed=0.00618x    frame=  496 fps=0.4 q=35.0 size=    4464kB time=00:00:08.12 bitrate=4503.0kbits/s speed=0.00619x    frame=  497 fps=0.4 q=35.0 size=    4464kB time=00:00:08.14 bitrate=4491.9kbits/s speed=0.0062x    frame=  499 fps=0.4 q=35.0 size=    4464kB time=00:00:08.18 bitrate=4469.9kbits/s speed=0.00622x    frame=  500 fps=0.4 q=35.0 size=    4464kB time=00:00:08.20 bitrate=4459.0kbits/s speed=0.00615x    frame=  500 fps=0.3 q=-1.0 Lsize=    9742kB time=00:00:09.94 bitrate=8027.8kbits/s speed=0.00612x    
video:9737kB audio:0kB subtitle:0kB other streams:0kB global headers:0kB muxing overhead: 0.044498%
bench: utime=6332.644s
bench: maxrss=6498728kB
[libx264 @ 0x2ce6120] frame I:3     Avg QP:31.46  size:439127
[libx264 @ 0x2ce6120] frame P:45    Avg QP:34.27  size: 67933
[libx264 @ 0x2ce6120] frame B:452   Avg QP:37.52  size: 12381
[libx264 @ 0x2ce6120] consecutive B-frames:  0.6%  0.0%  0.0%  0.0%  0.0%  0.0%  1.4%  3.2%  7.2% 30.0% 19.8%  9.6%  5.2% 14.0%  9.0%  0.0%  0.0%
[libx264 @ 0x2ce6120] mb I  I16..4: 25.2% 67.9%  6.9%
[libx264 @ 0x2ce6120] mb P  I16..4:  0.0%  0.2%  0.0%  P16..4: 42.0% 23.3%  4.3%  0.8%  0.0%    skip:29.5%
[libx264 @ 0x2ce6120] mb B  I16..4:  0.0%  0.0%  0.0%  B16..8: 38.2%  2.4%  0.0%  direct: 0.0%  skip:59.3%  L0:50.8% L1:49.1% BI: 0.1%
[libx264 @ 0x2ce6120] final ratefactor: 27.29
[libx264 @ 0x2ce6120] 8x8 transform intra:68.4% inter:66.2%
[libx264 @ 0x2ce6120] direct mvs  spatial:98.7% temporal:1.3%
[libx264 @ 0x2ce6120] coded y,uvDC,uvAC intra: 83.6% 60.1% 40.2% inter: 1.1% 0.8% 0.0%
[libx264 @ 0x2ce6120] i16 v,h,dc,p: 11% 31%  7% 50%
[libx264 @ 0x2ce6120] i8 v,h,dc,ddl,ddr,vr,hd,vl,hu:  3%  4%  1% 16% 21% 15% 20%  9% 12%
[libx264 @ 0x2ce6120] i4 v,h,dc,ddl,ddr,vr,hd,vl,hu:  2%  3%  1% 16% 19% 13% 19% 10% 16%
[libx264 @ 0x2ce6120] i8c dc,h,v,p: 24% 48% 17% 12%
[libx264 @ 0x2ce6120] Weighted P-Frames: Y:4.4% UV:2.2%
[libx264 @ 0x2ce6120] ref P L0: 57.6% 18.0% 10.7%  3.1%  2.4%  2.4%  2.1%  0.5%  0.5%  0.5%  0.4%  0.4%  0.4%  0.4%  0.4%  0.1%
[libx264 @ 0x2ce6120] ref B L0: 86.6%  4.6%  4.4%  0.9%  0.9%  0.8%  0.7%  0.1%  0.2%  0.2%  0.2%  0.2%  0.1%  0.1%  0.0%
[libx264 @ 0x2ce6120] ref B L1: 93.3%  6.7%
[libx264 @ 0x2ce6120] kb/s:7976.36
